<mxfile host="app.diagrams.net" agent="Mozilla/5.0 (Windows NT 10.0; Win64; x64) AppleWebKit/537.36 (KHTML, like Gecko) Chrome/139.0.0.0 Safari/537.36 Edg/139.0.0.0" version="28.1.1">
  <diagram name="Page-1" id="0wVmsrgd8NgL5IA3wcq7">
    <mxGraphModel dx="1034" dy="666" grid="1" gridSize="10" guides="1" tooltips="1" connect="1" arrows="1" fold="1" page="1" pageScale="1" pageWidth="850" pageHeight="1100" math="0" shadow="0">
      <root>
        <mxCell id="0" />
        <mxCell id="1" parent="0" />
        <mxCell id="HrDquWqHXHBKI1Ct7uMR-1" value="inferIntent(features)" style="whiteSpace=wrap;strokeWidth=2;" vertex="1" parent="1">
          <mxGeometry x="228" y="20" width="209" height="54" as="geometry" />
        </mxCell>
        <mxCell id="HrDquWqHXHBKI1Ct7uMR-2" value="scoreNorman = 0&#xa;scoreTorres = 0" style="whiteSpace=wrap;strokeWidth=2;" vertex="1" parent="1">
          <mxGeometry x="202" y="124" width="260" height="78" as="geometry" />
        </mxCell>
        <mxCell id="HrDquWqHXHBKI1Ct7uMR-3" value="emotion_kw_score &gt;= 1 ?" style="rhombus;strokeWidth=2;whiteSpace=wrap;" vertex="1" parent="1">
          <mxGeometry x="215" y="252" width="233" height="233" as="geometry" />
        </mxCell>
        <mxCell id="HrDquWqHXHBKI1Ct7uMR-4" value="scoreNorman++" style="whiteSpace=wrap;strokeWidth=2;" vertex="1" parent="1">
          <mxGeometry x="312" y="557" width="170" height="54" as="geometry" />
        </mxCell>
        <mxCell id="HrDquWqHXHBKI1Ct7uMR-5" value="avg dwell q1,q2 &gt; 7000ms ?" style="rhombus;strokeWidth=2;whiteSpace=wrap;" vertex="1" parent="1">
          <mxGeometry x="207" y="661" width="249" height="249" as="geometry" />
        </mxCell>
        <mxCell id="HrDquWqHXHBKI1Ct7uMR-6" value="scoreNorman++" style="whiteSpace=wrap;strokeWidth=2;" vertex="1" parent="1">
          <mxGeometry x="312" y="983" width="170" height="54" as="geometry" />
        </mxCell>
        <mxCell id="HrDquWqHXHBKI1Ct7uMR-7" value="night_mode ?" style="rhombus;strokeWidth=2;whiteSpace=wrap;" vertex="1" parent="1">
          <mxGeometry x="257" y="1087" width="149" height="149" as="geometry" />
        </mxCell>
        <mxCell id="HrDquWqHXHBKI1Ct7uMR-8" value="scoreNorman++" style="whiteSpace=wrap;strokeWidth=2;" vertex="1" parent="1">
          <mxGeometry x="312" y="1309" width="170" height="54" as="geometry" />
        </mxCell>
        <mxCell id="HrDquWqHXHBKI1Ct7uMR-9" value="backtracks == 0 ?" style="rhombus;strokeWidth=2;whiteSpace=wrap;" vertex="1" parent="1">
          <mxGeometry x="244" y="1413" width="176" height="176" as="geometry" />
        </mxCell>
        <mxCell id="HrDquWqHXHBKI1Ct7uMR-10" value="scoreNorman++" style="whiteSpace=wrap;strokeWidth=2;" vertex="1" parent="1">
          <mxGeometry x="312" y="1661" width="170" height="54" as="geometry" />
        </mxCell>
        <mxCell id="HrDquWqHXHBKI1Ct7uMR-11" value="clicked_preview or chose_action_opt ?" style="rhombus;strokeWidth=2;whiteSpace=wrap;" vertex="1" parent="1">
          <mxGeometry x="193" y="1765" width="278" height="278" as="geometry" />
        </mxCell>
        <mxCell id="HrDquWqHXHBKI1Ct7uMR-12" value="scoreTorres++" style="whiteSpace=wrap;strokeWidth=2;" vertex="1" parent="1">
          <mxGeometry x="315" y="2116" width="158" height="54" as="geometry" />
        </mxCell>
        <mxCell id="HrDquWqHXHBKI1Ct7uMR-13" value="avg dwell q1,q2 &amp;lt; 6000ms ?" style="rhombus;strokeWidth=2;whiteSpace=wrap;" vertex="1" parent="1">
          <mxGeometry x="207" y="2220" width="249" height="249" as="geometry" />
        </mxCell>
        <mxCell id="HrDquWqHXHBKI1Ct7uMR-14" value="scoreTorres++" style="whiteSpace=wrap;strokeWidth=2;" vertex="1" parent="1">
          <mxGeometry x="315" y="2542" width="158" height="54" as="geometry" />
        </mxCell>
        <mxCell id="HrDquWqHXHBKI1Ct7uMR-15" value="skipped_validation ?" style="rhombus;strokeWidth=2;whiteSpace=wrap;" vertex="1" parent="1">
          <mxGeometry x="233" y="2646" width="199" height="199" as="geometry" />
        </mxCell>
        <mxCell id="HrDquWqHXHBKI1Ct7uMR-16" value="scoreTorres++" style="whiteSpace=wrap;strokeWidth=2;" vertex="1" parent="1">
          <mxGeometry x="315" y="2917" width="158" height="54" as="geometry" />
        </mxCell>
        <mxCell id="HrDquWqHXHBKI1Ct7uMR-17" value="delta = scoreTorres - scoreNorman" style="whiteSpace=wrap;strokeWidth=2;" vertex="1" parent="1">
          <mxGeometry x="202" y="3021" width="260" height="78" as="geometry" />
        </mxCell>
        <mxCell id="HrDquWqHXHBKI1Ct7uMR-18" value="delta &gt;= 1 ?" style="rhombus;strokeWidth=2;whiteSpace=wrap;" vertex="1" parent="1">
          <mxGeometry x="264" y="3149" width="137" height="137" as="geometry" />
        </mxCell>
        <mxCell id="HrDquWqHXHBKI1Ct7uMR-19" value="profile = Torres" style="whiteSpace=wrap;strokeWidth=2;" vertex="1" parent="1">
          <mxGeometry x="20" y="3573" width="169" height="54" as="geometry" />
        </mxCell>
        <mxCell id="HrDquWqHXHBKI1Ct7uMR-20" value="delta &amp;lt;= -1 ?" style="rhombus;strokeWidth=2;whiteSpace=wrap;" vertex="1" parent="1">
          <mxGeometry x="373" y="3358" width="143" height="143" as="geometry" />
        </mxCell>
        <mxCell id="HrDquWqHXHBKI1Ct7uMR-21" value="profile = Norman" style="whiteSpace=wrap;strokeWidth=2;" vertex="1" parent="1">
          <mxGeometry x="239" y="3573" width="181" height="54" as="geometry" />
        </mxCell>
        <mxCell id="HrDquWqHXHBKI1Ct7uMR-22" value="profile = Neutral" style="whiteSpace=wrap;strokeWidth=2;" vertex="1" parent="1">
          <mxGeometry x="470" y="3573" width="179" height="54" as="geometry" />
        </mxCell>
        <mxCell id="HrDquWqHXHBKI1Ct7uMR-23" value="confidence = min(1, abs(delta)/3)" style="whiteSpace=wrap;strokeWidth=2;" vertex="1" parent="1">
          <mxGeometry x="199" y="3677" width="260" height="78" as="geometry" />
        </mxCell>
        <mxCell id="HrDquWqHXHBKI1Ct7uMR-24" value="return {profile, confidence, used}" style="whiteSpace=wrap;strokeWidth=2;" vertex="1" parent="1">
          <mxGeometry x="199" y="3805" width="260" height="78" as="geometry" />
        </mxCell>
        <mxCell id="HrDquWqHXHBKI1Ct7uMR-25" value="" style="curved=1;startArrow=none;endArrow=block;exitX=0.5;exitY=1;entryX=0.5;entryY=0;rounded=0;" edge="1" parent="1" source="HrDquWqHXHBKI1Ct7uMR-1" target="HrDquWqHXHBKI1Ct7uMR-2">
          <mxGeometry relative="1" as="geometry">
            <Array as="points" />
          </mxGeometry>
        </mxCell>
        <mxCell id="HrDquWqHXHBKI1Ct7uMR-26" value="" style="curved=1;startArrow=none;endArrow=block;exitX=0.5;exitY=1;entryX=0.5;entryY=0;rounded=0;" edge="1" parent="1" source="HrDquWqHXHBKI1Ct7uMR-2" target="HrDquWqHXHBKI1Ct7uMR-3">
          <mxGeometry relative="1" as="geometry">
            <Array as="points" />
          </mxGeometry>
        </mxCell>
        <mxCell id="HrDquWqHXHBKI1Ct7uMR-27" value="yes" style="curved=1;startArrow=none;endArrow=block;exitX=0.72;exitY=1;entryX=0.5;entryY=0.01;rounded=0;" edge="1" parent="1" source="HrDquWqHXHBKI1Ct7uMR-3" target="HrDquWqHXHBKI1Ct7uMR-4">
          <mxGeometry relative="1" as="geometry">
            <Array as="points">
              <mxPoint x="397" y="521" />
            </Array>
          </mxGeometry>
        </mxCell>
        <mxCell id="HrDquWqHXHBKI1Ct7uMR-28" value="no" style="curved=1;startArrow=none;endArrow=block;exitX=0.29;exitY=1;entryX=0.28;entryY=0;rounded=0;" edge="1" parent="1" source="HrDquWqHXHBKI1Ct7uMR-3" target="HrDquWqHXHBKI1Ct7uMR-5">
          <mxGeometry relative="1" as="geometry">
            <Array as="points">
              <mxPoint x="267" y="521" />
              <mxPoint x="267" y="636" />
            </Array>
          </mxGeometry>
        </mxCell>
        <mxCell id="HrDquWqHXHBKI1Ct7uMR-29" value="" style="curved=1;startArrow=none;endArrow=block;exitX=0.5;exitY=1.01;entryX=0.72;entryY=0;rounded=0;" edge="1" parent="1" source="HrDquWqHXHBKI1Ct7uMR-4" target="HrDquWqHXHBKI1Ct7uMR-5">
          <mxGeometry relative="1" as="geometry">
            <Array as="points">
              <mxPoint x="397" y="636" />
            </Array>
          </mxGeometry>
        </mxCell>
        <mxCell id="HrDquWqHXHBKI1Ct7uMR-30" value="yes" style="curved=1;startArrow=none;endArrow=block;exitX=0.71;exitY=1;entryX=0.5;entryY=0;rounded=0;" edge="1" parent="1" source="HrDquWqHXHBKI1Ct7uMR-5" target="HrDquWqHXHBKI1Ct7uMR-6">
          <mxGeometry relative="1" as="geometry">
            <Array as="points">
              <mxPoint x="397" y="947" />
            </Array>
          </mxGeometry>
        </mxCell>
        <mxCell id="HrDquWqHXHBKI1Ct7uMR-31" value="no" style="curved=1;startArrow=none;endArrow=block;exitX=0.3;exitY=1;entryX=0.17;entryY=0;rounded=0;" edge="1" parent="1" source="HrDquWqHXHBKI1Ct7uMR-5" target="HrDquWqHXHBKI1Ct7uMR-7">
          <mxGeometry relative="1" as="geometry">
            <Array as="points">
              <mxPoint x="267" y="947" />
              <mxPoint x="267" y="1062" />
            </Array>
          </mxGeometry>
        </mxCell>
        <mxCell id="HrDquWqHXHBKI1Ct7uMR-32" value="" style="curved=1;startArrow=none;endArrow=block;exitX=0.5;exitY=1;entryX=0.83;entryY=0;rounded=0;" edge="1" parent="1" source="HrDquWqHXHBKI1Ct7uMR-6" target="HrDquWqHXHBKI1Ct7uMR-7">
          <mxGeometry relative="1" as="geometry">
            <Array as="points">
              <mxPoint x="397" y="1062" />
            </Array>
          </mxGeometry>
        </mxCell>
        <mxCell id="HrDquWqHXHBKI1Ct7uMR-33" value="yes" style="curved=1;startArrow=none;endArrow=block;exitX=0.8;exitY=1;entryX=0.5;entryY=-0.01;rounded=0;" edge="1" parent="1" source="HrDquWqHXHBKI1Ct7uMR-7" target="HrDquWqHXHBKI1Ct7uMR-8">
          <mxGeometry relative="1" as="geometry">
            <Array as="points">
              <mxPoint x="397" y="1272" />
            </Array>
          </mxGeometry>
        </mxCell>
        <mxCell id="HrDquWqHXHBKI1Ct7uMR-34" value="no" style="curved=1;startArrow=none;endArrow=block;exitX=0.21;exitY=1;entryX=0.21;entryY=0;rounded=0;" edge="1" parent="1" source="HrDquWqHXHBKI1Ct7uMR-7" target="HrDquWqHXHBKI1Ct7uMR-9">
          <mxGeometry relative="1" as="geometry">
            <Array as="points">
              <mxPoint x="267" y="1272" />
              <mxPoint x="267" y="1388" />
            </Array>
          </mxGeometry>
        </mxCell>
        <mxCell id="HrDquWqHXHBKI1Ct7uMR-35" value="" style="curved=1;startArrow=none;endArrow=block;exitX=0.5;exitY=0.99;entryX=0.79;entryY=0;rounded=0;" edge="1" parent="1" source="HrDquWqHXHBKI1Ct7uMR-8" target="HrDquWqHXHBKI1Ct7uMR-9">
          <mxGeometry relative="1" as="geometry">
            <Array as="points">
              <mxPoint x="397" y="1388" />
            </Array>
          </mxGeometry>
        </mxCell>
        <mxCell id="HrDquWqHXHBKI1Ct7uMR-36" value="yes" style="curved=1;startArrow=none;endArrow=block;exitX=0.76;exitY=1;entryX=0.5;entryY=0.01;rounded=0;" edge="1" parent="1" source="HrDquWqHXHBKI1Ct7uMR-9" target="HrDquWqHXHBKI1Ct7uMR-10">
          <mxGeometry relative="1" as="geometry">
            <Array as="points">
              <mxPoint x="397" y="1625" />
            </Array>
          </mxGeometry>
        </mxCell>
        <mxCell id="HrDquWqHXHBKI1Ct7uMR-37" value="no" style="curved=1;startArrow=none;endArrow=block;exitX=0.24;exitY=1;entryX=0.3;entryY=0;rounded=0;" edge="1" parent="1" source="HrDquWqHXHBKI1Ct7uMR-9" target="HrDquWqHXHBKI1Ct7uMR-11">
          <mxGeometry relative="1" as="geometry">
            <Array as="points">
              <mxPoint x="267" y="1625" />
              <mxPoint x="267" y="1740" />
            </Array>
          </mxGeometry>
        </mxCell>
        <mxCell id="HrDquWqHXHBKI1Ct7uMR-38" value="" style="curved=1;startArrow=none;endArrow=block;exitX=0.5;exitY=1.01;entryX=0.7;entryY=0;rounded=0;" edge="1" parent="1" source="HrDquWqHXHBKI1Ct7uMR-10" target="HrDquWqHXHBKI1Ct7uMR-11">
          <mxGeometry relative="1" as="geometry">
            <Array as="points">
              <mxPoint x="397" y="1740" />
            </Array>
          </mxGeometry>
        </mxCell>
        <mxCell id="HrDquWqHXHBKI1Ct7uMR-39" value="yes" style="curved=1;startArrow=none;endArrow=block;exitX=0.68;exitY=1;entryX=0.5;entryY=0;rounded=0;" edge="1" parent="1" source="HrDquWqHXHBKI1Ct7uMR-11" target="HrDquWqHXHBKI1Ct7uMR-12">
          <mxGeometry relative="1" as="geometry">
            <Array as="points">
              <mxPoint x="394" y="2080" />
            </Array>
          </mxGeometry>
        </mxCell>
        <mxCell id="HrDquWqHXHBKI1Ct7uMR-40" value="no" style="curved=1;startArrow=none;endArrow=block;exitX=0.32;exitY=1;entryX=0.29;entryY=0;rounded=0;" edge="1" parent="1" source="HrDquWqHXHBKI1Ct7uMR-11" target="HrDquWqHXHBKI1Ct7uMR-13">
          <mxGeometry relative="1" as="geometry">
            <Array as="points">
              <mxPoint x="270" y="2080" />
              <mxPoint x="270" y="2195" />
            </Array>
          </mxGeometry>
        </mxCell>
        <mxCell id="HrDquWqHXHBKI1Ct7uMR-41" value="" style="curved=1;startArrow=none;endArrow=block;exitX=0.5;exitY=1;entryX=0.71;entryY=0;rounded=0;" edge="1" parent="1" source="HrDquWqHXHBKI1Ct7uMR-12" target="HrDquWqHXHBKI1Ct7uMR-13">
          <mxGeometry relative="1" as="geometry">
            <Array as="points">
              <mxPoint x="394" y="2195" />
            </Array>
          </mxGeometry>
        </mxCell>
        <mxCell id="HrDquWqHXHBKI1Ct7uMR-42" value="yes" style="curved=1;startArrow=none;endArrow=block;exitX=0.7;exitY=1;entryX=0.5;entryY=-0.01;rounded=0;" edge="1" parent="1" source="HrDquWqHXHBKI1Ct7uMR-13" target="HrDquWqHXHBKI1Ct7uMR-14">
          <mxGeometry relative="1" as="geometry">
            <Array as="points">
              <mxPoint x="394" y="2505" />
            </Array>
          </mxGeometry>
        </mxCell>
        <mxCell id="HrDquWqHXHBKI1Ct7uMR-43" value="no" style="curved=1;startArrow=none;endArrow=block;exitX=0.31;exitY=1;entryX=0.25;entryY=0;rounded=0;" edge="1" parent="1" source="HrDquWqHXHBKI1Ct7uMR-13" target="HrDquWqHXHBKI1Ct7uMR-15">
          <mxGeometry relative="1" as="geometry">
            <Array as="points">
              <mxPoint x="270" y="2505" />
              <mxPoint x="270" y="2621" />
            </Array>
          </mxGeometry>
        </mxCell>
        <mxCell id="HrDquWqHXHBKI1Ct7uMR-44" value="" style="curved=1;startArrow=none;endArrow=block;exitX=0.5;exitY=0.99;entryX=0.75;entryY=0;rounded=0;" edge="1" parent="1" source="HrDquWqHXHBKI1Ct7uMR-14" target="HrDquWqHXHBKI1Ct7uMR-15">
          <mxGeometry relative="1" as="geometry">
            <Array as="points">
              <mxPoint x="394" y="2621" />
            </Array>
          </mxGeometry>
        </mxCell>
        <mxCell id="HrDquWqHXHBKI1Ct7uMR-45" value="yes" style="curved=1;startArrow=none;endArrow=block;exitX=0.73;exitY=1;entryX=0.5;entryY=0;rounded=0;" edge="1" parent="1" source="HrDquWqHXHBKI1Ct7uMR-15" target="HrDquWqHXHBKI1Ct7uMR-16">
          <mxGeometry relative="1" as="geometry">
            <Array as="points">
              <mxPoint x="394" y="2881" />
            </Array>
          </mxGeometry>
        </mxCell>
        <mxCell id="HrDquWqHXHBKI1Ct7uMR-46" value="no" style="curved=1;startArrow=none;endArrow=block;exitX=0.27;exitY=1;entryX=0.35;entryY=0;rounded=0;" edge="1" parent="1" source="HrDquWqHXHBKI1Ct7uMR-15" target="HrDquWqHXHBKI1Ct7uMR-17">
          <mxGeometry relative="1" as="geometry">
            <Array as="points">
              <mxPoint x="270" y="2881" />
              <mxPoint x="270" y="2996" />
            </Array>
          </mxGeometry>
        </mxCell>
        <mxCell id="HrDquWqHXHBKI1Ct7uMR-47" value="" style="curved=1;startArrow=none;endArrow=block;exitX=0.5;exitY=1;entryX=0.65;entryY=0;rounded=0;" edge="1" parent="1" source="HrDquWqHXHBKI1Ct7uMR-16" target="HrDquWqHXHBKI1Ct7uMR-17">
          <mxGeometry relative="1" as="geometry">
            <Array as="points">
              <mxPoint x="394" y="2996" />
            </Array>
          </mxGeometry>
        </mxCell>
        <mxCell id="HrDquWqHXHBKI1Ct7uMR-48" value="" style="curved=1;startArrow=none;endArrow=block;exitX=0.5;exitY=1;entryX=0.5;entryY=0;rounded=0;" edge="1" parent="1" source="HrDquWqHXHBKI1Ct7uMR-17" target="HrDquWqHXHBKI1Ct7uMR-18">
          <mxGeometry relative="1" as="geometry">
            <Array as="points" />
          </mxGeometry>
        </mxCell>
        <mxCell id="HrDquWqHXHBKI1Ct7uMR-49" value="yes" style="curved=1;startArrow=none;endArrow=block;exitX=0;exitY=0.73;entryX=0.5;entryY=-0.01;rounded=0;" edge="1" parent="1" source="HrDquWqHXHBKI1Ct7uMR-18" target="HrDquWqHXHBKI1Ct7uMR-19">
          <mxGeometry relative="1" as="geometry">
            <Array as="points">
              <mxPoint x="104" y="3322" />
            </Array>
          </mxGeometry>
        </mxCell>
        <mxCell id="HrDquWqHXHBKI1Ct7uMR-50" value="no" style="curved=1;startArrow=none;endArrow=block;exitX=1;exitY=0.96;entryX=0.5;entryY=0;rounded=0;" edge="1" parent="1" source="HrDquWqHXHBKI1Ct7uMR-18" target="HrDquWqHXHBKI1Ct7uMR-20">
          <mxGeometry relative="1" as="geometry">
            <Array as="points">
              <mxPoint x="445" y="3322" />
            </Array>
          </mxGeometry>
        </mxCell>
        <mxCell id="HrDquWqHXHBKI1Ct7uMR-51" value="yes" style="curved=1;startArrow=none;endArrow=block;exitX=0;exitY=0.96;entryX=0.5;entryY=-0.01;rounded=0;" edge="1" parent="1" source="HrDquWqHXHBKI1Ct7uMR-20" target="HrDquWqHXHBKI1Ct7uMR-21">
          <mxGeometry relative="1" as="geometry">
            <Array as="points">
              <mxPoint x="329" y="3536" />
            </Array>
          </mxGeometry>
        </mxCell>
        <mxCell id="HrDquWqHXHBKI1Ct7uMR-52" value="no" style="curved=1;startArrow=none;endArrow=block;exitX=1;exitY=0.96;entryX=0.5;entryY=-0.01;rounded=0;" edge="1" parent="1" source="HrDquWqHXHBKI1Ct7uMR-20" target="HrDquWqHXHBKI1Ct7uMR-22">
          <mxGeometry relative="1" as="geometry">
            <Array as="points">
              <mxPoint x="560" y="3536" />
            </Array>
          </mxGeometry>
        </mxCell>
        <mxCell id="HrDquWqHXHBKI1Ct7uMR-53" value="" style="curved=1;startArrow=none;endArrow=block;exitX=0.5;exitY=0.99;entryX=0;entryY=0.02;rounded=0;" edge="1" parent="1" source="HrDquWqHXHBKI1Ct7uMR-19" target="HrDquWqHXHBKI1Ct7uMR-23">
          <mxGeometry relative="1" as="geometry">
            <Array as="points">
              <mxPoint x="104" y="3652" />
            </Array>
          </mxGeometry>
        </mxCell>
        <mxCell id="HrDquWqHXHBKI1Ct7uMR-54" value="" style="curved=1;startArrow=none;endArrow=block;exitX=0.5;exitY=0.99;entryX=0.5;entryY=0;rounded=0;" edge="1" parent="1" source="HrDquWqHXHBKI1Ct7uMR-21" target="HrDquWqHXHBKI1Ct7uMR-23">
          <mxGeometry relative="1" as="geometry">
            <Array as="points" />
          </mxGeometry>
        </mxCell>
        <mxCell id="HrDquWqHXHBKI1Ct7uMR-55" value="" style="curved=1;startArrow=none;endArrow=block;exitX=0.5;exitY=0.99;entryX=1;entryY=0.03;rounded=0;" edge="1" parent="1" source="HrDquWqHXHBKI1Ct7uMR-22" target="HrDquWqHXHBKI1Ct7uMR-23">
          <mxGeometry relative="1" as="geometry">
            <Array as="points">
              <mxPoint x="560" y="3652" />
            </Array>
          </mxGeometry>
        </mxCell>
        <mxCell id="HrDquWqHXHBKI1Ct7uMR-56" value="" style="curved=1;startArrow=none;endArrow=block;exitX=0.5;exitY=1;entryX=0.5;entryY=0;rounded=0;" edge="1" parent="1" source="HrDquWqHXHBKI1Ct7uMR-23" target="HrDquWqHXHBKI1Ct7uMR-24">
          <mxGeometry relative="1" as="geometry">
            <Array as="points" />
          </mxGeometry>
        </mxCell>
      </root>
    </mxGraphModel>
  </diagram>
</mxfile>
